# xmcd
#
# Track frame offsets:
#	150
#	11411
#	24203
#	37310
#	61629
#	75608
#	90965
#	111100
#	123289
#	136514
#	150123
#	160729
#	171370
#	195563
#	207420
#	219308
#	240985
#	262677
#	277490
#	300599
#
# Disc length: 4169 seconds
#
# Revision: 1
# Processed by: cddbd v1.5.2PL0 Copyright (c) Steve Scherf et al.
# Submitted via: EasyCDDAExtractor 10.5.1.1
#
DISCID=f0104714
DTITLE=various  - 3 A Stack Of Blues
DYEAR=1900
DGENRE=Blues
TTITLE0=I Get Evil - Albert King
TTITLE1=Tanya - Earl Hooker
TTITLE2=All Your Love - Magic Sam
TTITLE3=Happy Blues For John Glenn - Lightnin' Hopkins
TTITLE4=Smokestack Lightnin' - Howlin' Wolf
TTITLE5=Skippin' - Buddy Guy
TTITLE6=I've Got My Mojo Working - Muddy Waters
TTITLE7=I Need You, Baby - Eddie Kirkland
TTITLE8=Working Man Blues - Louisiana Red
TTITLE9=The Story Of My Life - Guitar Slim
TTITLE10=Want Ad Blues - John Lee Hooker
TTITLE11=Collin's Shuffle - Albert Collins 
TTITLE12=I Got To Know - Deborah Coleman
TTITLE13=All Your Love (I Miss Loving) - Otis Rush and His Band
TTITLE14=San-Ho-Zay - Freddy King
TTITLE15=Heart Of Pain - Lucky Peterson
TTITLE16=I Smell Trouble - Kirk Fletcher
TTITLE17=Cuttin' In - Johnny "Guitar" Watson
TTITLE18=I Once Was A Gambler - Phil Guy
TTITLE19=Everyday I Have The Blues - B.B. King
EXTD=
EXTT0=
EXTT1=
EXTT2=
EXTT3=
EXTT4=
EXTT5=
EXTT6=
EXTT7=
EXTT8=
EXTT9=
EXTT10=
EXTT11=
EXTT12=
EXTT13=
EXTT14=
EXTT15=
EXTT16=
EXTT17=
EXTT18=
EXTT19=
PLAYORDER=
